#!OML:ASF X:\für Bonn\!DataBase\2005_08_10_Bjorn_Final\c3d\bjorn.ASF
:FULLY-SPECIFIED
:DEGREES
781
root -0.154195 1.56735 10.2233 -2431 -3.60784 186.528
lowerback -0.595252 -0.0488485 -6.31624
upperback 3.74541 0.0240504 -3.58802
thorax 4.21063 -0.234996 -0.186593
lowerneck -20.4498 -5.04875 -1.2903
upperneck 10.9025 -6.94264 3.8668
head 6.82993 -2.94518 0.666605
rclavicle 5.56597e-015 -3.62782e-014
rhumerus -426.463 53.3431 255.649
rradius 111.363
rwrist -32.5133
rhand 6.96791 8.4232
rfingers 7.12502
rthumb 32.2451 -18.7333
lclavicle 5.56597e-015 -3.62782e-014
lhumerus -66.1562 -66.5041 108.452
lradius 109.054
lwrist 37.559
lhand -0.00567694 -11.8858
lfingers 7.12502
lthumb 25.5849 736.416
rfemur -185.111 -158.194 184.263
rtibia 27.3063
rfoot 2.24192 -7.56096
rtoes 9.94271
lfemur 174.559 174.779 161.987
ltibia 23.1105
lfoot 4.90194 14.6079
ltoes 3.12889
782
root -0.15415 1.5667 10.2233 -2431 -3.59401 186.536
lowerback -0.591446 -0.0553845 -6.32448
upperback 3.7554 0.0161396 -3.56234
thorax 4.21933 -0.239533 -0.155819
lowerneck -20.4799 -5.05965 -1.33438
upperneck 10.8911 -6.94631 3.87609
head 6.83303 -2.94792 0.675573
rclavicle -1.43125e-014 1.54058e-014
rhumerus -426.448 53.3783 255.691
rradius 111.354
rwrist -32.5059
rhand 6.94824 8.4101
rfingers 7.12502
rthumb 32.2264 -18.7502
lclavicle -1.43125e-014 1.54058e-014
lhumerus -66.0823 -66.4989 108.423
lradius 109.044
lwrist 37.5647
lhand -0.0407423 -11.8844
lfingers 7.12502
lthumb 25.5513 736.422
rfemur -185.099 -158.212 184.277
rtibia 27.2943
rfoot 2.17367 -7.65204
rtoes 9.94409
lfemur 174.545 174.67 162.011
ltibia 23.1269
lfoot 5.0111 14.5018
ltoes 2.83117
783
root -0.15396 1.56681 10.2229 -2431.02 -3.57949 186.543
lowerback -0.555902 -0.0474833 -6.29833
upperback 3.74391 0.0217665 -3.57354
thorax 4.18662 -0.234949 -0.181244
lowerneck -20.4581 -5.06024 -1.30834
upperneck 10.8791 -6.95353 3.87947
head 6.82504 -2.95 0.672356
rclavicle -5.56597e-015 -2.43511e-014
rhumerus -426.505 53.3378 255.624
rradius 111.354
rwrist -32.4922
rhand 6.94614 8.42184
rfingers 7.12502
rthumb 32.2244 -18.7388
lclavicle -5.56597e-015 -2.43511e-014
lhumerus -66.1896 -66.5233 108.512
lradius 109.056
lwrist 37.601
lhand -0.0214618 -11.883
lfingers 7.12502
lthumb 25.5698 736.421
rfemur -185.064 -158.244 184.286
rtibia 27.2818
rfoot 2.0998 -7.73011
rtoes 10.0124
lfemur 174.556 174.624 162.033
ltibia 23.1388
lfoot 5.08086 14.4502
ltoes 2.54775
784
root -0.153931 1.5665 10.2226 -2431.03 -3.57762 186.551
lowerback -0.538556 -0.0570074 -6.31982
upperback 3.74815 0.00859153 -3.5544
thorax 4.18192 -0.242136 -0.149962
lowerneck -20.4909 -5.05368 -1.30047
upperneck 10.8843 -6.94171 3.84006
head 6.8298 -2.94775 0.659013
rclavicle -3.97569e-015 -3.91606e-014
rhumerus -426.504 53.3768 255.644
rradius 111.35
rwrist -32.4922
rhand 6.96986 8.41833
rfingers 7.12502
rthumb 32.247 -18.7378
lclavicle -3.97569e-015 -3.91606e-014
lhumerus -66.1591 -66.4894 108.514
lradius 109.04
lwrist 37.5892
lhand -0.0493899 -11.8875
lfingers 7.12502
lthumb 25.5431 736.42
rfemur -185.045 -158.289 184.287
rtibia 27.2752
rfoot 2.01621 -7.82572
rtoes 10.0811
lfemur 174.561 174.639 162.034
ltibia 23.145
lfoot 5.06557 14.4581
ltoes 2.64732
785
root -0.153784 1.56628 10.223 -2431.05 -3.54932 186.561
lowerback -0.510828 -0.058167 -6.29133
upperback 3.74931 0.00402998 -3.54611
thorax 4.16736 -0.243045 -0.157124
lowerneck -20.4632 -5.05407 -1.29811
upperneck 10.849 -6.9414 3.84266
head 6.8138 -2.94823 0.660518
rclavicle 7.15625e-015 2.98177e-016
rhumerus -426.529 53.3782 255.621
rradius 111.352
rwrist -32.487
rhand 6.93353 8.41851
rfingers 7.12502
rthumb 32.2124 -18.7446
lclavicle 7.15625e-015 2.98177e-016
lhumerus -66.2024 -66.4952 108.559
lradius 109.046
lwrist 37.5986
lhand -0.0522359 -11.8834
lfingers 7.12502
lthumb 25.5403 736.424
rfemur -185.02 -158.319 184.313
rtibia 27.269
rfoot 1.9575 -7.91032
rtoes 10.0262
lfemur 174.579 174.604 162.07
ltibia 23.1502
lfoot 5.09941 14.4145
ltoes 2.5577
786
root -0.153568 1.56576 10.2221 -2431.06 -3.54864 186.56
lowerback -0.494212 -0.059545 -6.29907
upperback 3.75493 0.000956397 -3.53885
thorax 4.16397 -0.245002 -0.145397
lowerneck -20.492 -5.05092 -1.30408
upperneck 10.8471 -6.93476 3.83918
head 6.81772 -2.94536 0.660549
rclavicle 2.46493e-014 -8.34896e-015
rhumerus -426.513 53.3991 255.649
rradius 111.36
rwrist -32.4968
rhand 6.94366 8.42579
rfingers 7.12502
rthumb 32.2221 -18.7354
lclavicle 2.46493e-014 -8.34896e-015
lhumerus -66.1807 -66.49 108.549
lradius 109.042
lwrist 37.6216
lhand -0.0659974 -11.8977
lfingers 7.12502
lthumb 25.5272 736.412
rfemur -185.006 -158.377 184.317
rtibia 27.2653
rfoot 1.88084 -7.98389
rtoes 10.1646
lfemur 174.584 174.603 162.073
ltibia 23.1559
lfoot 5.08966 14.3995
ltoes 2.5918
787
root -0.153398 1.56531 10.2218 -2431.08 -3.53303 186.569
lowerback -0.458696 -0.0659112 -6.29905
upperback 3.74639 -0.0107106 -3.52342
thorax 4.13535 -0.249777 -0.129452
lowerneck -20.4551 -5.04782 -1.28952
upperneck 10.8129 -6.92861 3.80611
head 6.79852 -2.94656 0.649433
rclavicle 5.56597e-015 1.0635e-014
rhumerus -426.52 53.4117 255.642
rradius 111.339
rwrist -32.4967
rhand 6.9587 8.39169
rfingers 7.12502
rthumb 32.2364 -18.7666
lclavicle 5.56597e-015 1.0635e-014
lhumerus -66.2405 -66.4642 108.616
lradius 109.037
lwrist 37.6254
lhand -0.0641506 -11.9186
lfingers 7.12502
lthumb 25.5289 736.391
rfemur -184.976 -158.409 184.328
rtibia 27.2594
rfoot 1.7988 -8.04619
rtoes 10.2046
lfemur 174.594 174.55 162.096
ltibia 23.1642
lfoot 5.15834 14.3374
ltoes 2.40664
